<?xml version="1.0" encoding="UTF-8"?>
<svg xmlns="http://www.w3.org/2000/svg" width="1400" height="1400" viewBox="0 0 1400 1400">
  <rect width="100%" height="100%" fill="#0a0a0f"/>
  <title>Kansas_Farmland Road Network</title>
  <desc>Category: residential, Roads: 147</desc>
  <g id="service" stroke-linecap="round" stroke-linejoin="round">
    <path d="M1275.8,351.6L1277.2,349.2L1280.0,347.4L1291.4,344.2L1298.6,345.6L1303.9,350.2L1308.5,356.2L1309.8,409.4L1309.2,414.1L1312.4,462.2" stroke="#868E96" stroke-width="1.5" fill="none" opacity="0.9"/>
    <path d="M1410.4,491.8L1395.7,463.7L1392.7,455.5L1388.2,438.3L1387.9,432.9L1391.1,419.0L1389.8,415.0L1387.3,413.1L1360.7,412.1L1319.3,412.8L1311.5,413.1L1309.2,414.1" stroke="#868E96" stroke-width="1.5" fill="none" opacity="0.9"/>
    <path d="M893.9,236.2L907.8,247.8" stroke="#868E96" stroke-width="1.5" fill="none" opacity="0.9"/>
    <path d="M974.7,463.5L971.3,466.1L939.7,519.9L938.2,532.1L934.7,719.9L931.4,724.3L922.8,725.4L734.9,725.0L646.1,726.3" stroke="#868E96" stroke-width="1.5" fill="none" opacity="0.9"/>
    <path d="M887.9,244.0L896.8,232.6L901.8,229.8L907.7,229.1L932.8,233.3L938.1,232.7L942.3,229.0L947.6,214.4" stroke="#868E96" stroke-width="1.5" fill="none" opacity="0.9"/>
    <path d="M1022.5,241.9L1023.2,207.5L1022.4,203.3L1019.0,198.0L1012.3,192.6L1004.1,180.2L999.9,177.4L992.9,175.9L987.5,177.2L974.5,183.4L966.7,190.4L964.7,194.4L963.4,219.2" stroke="#868E96" stroke-width="1.5" fill="none" opacity="0.9"/>
    <path d="M1209.7,242.0L1209.4,227.0L1207.5,220.1L1206.0,218.9L1183.0,221.3L1152.1,219.8" stroke="#868E96" stroke-width="1.5" fill="none" opacity="0.9"/>
    <path d="M1003.1,-66.5L1315.5,101.8" stroke="#868E96" stroke-width="1.5" fill="none" opacity="0.9"/>
    <path d="M1121.1,36.1L1255.6,108.2" stroke="#868E96" stroke-width="1.5" fill="none" opacity="0.9"/>
    <path d="M1144.8,123.3L1148.5,118.5L1149.4,115.1L1148.1,111.5L1142.7,105.0" stroke="#868E96" stroke-width="1.5" fill="none" opacity="0.9"/>
    <path d="M1143.4,242.5L1144.5,234.1L1146.9,227.1L1156.8,214.4" stroke="#868E96" stroke-width="1.5" fill="none" opacity="0.9"/>
    <path d="M1278.0,182.3L1282.2,180.2L1283.1,177.2L1282.1,174.5L1278.4,172.6L1274.7,174.1L1273.4,176.8L1275.1,181.1L1278.0,182.3" stroke="#868E96" stroke-width="1.5" fill="none" opacity="0.9"/>
    <path d="M1316.1,241.7L1316.3,258.2" stroke="#868E96" stroke-width="1.5" fill="none" opacity="0.9"/>
    <path d="M1343.0,155.3L1331.4,148.8L1327.6,148.5L1325.8,150.0L1314.7,171.4" stroke="#868E96" stroke-width="1.5" fill="none" opacity="0.9"/>
    <path d="M1365.2,148.3L1349.9,178.2L1345.3,180.6L1334.7,178.0" stroke="#868E96" stroke-width="1.5" fill="none" opacity="0.9"/>
    <path d="M553.0,161.4L571.5,156.2L599.2,141.6L620.5,154.2L639.8,160.2L660.3,169.2L667.2,174.4L675.7,186.0L677.7,193.0L675.5,196.6L667.9,201.4L666.4,206.9" stroke="#868E96" stroke-width="1.5" fill="none" opacity="0.9"/>
    <path d="M1033.3,231.9L994.8,231.6L979.1,228.7L963.4,219.2L919.7,204.9L869.9,171.9L866.9,171.9L863.0,175.5" stroke="#868E96" stroke-width="1.5" fill="none" opacity="0.9"/>
    <path d="M1105.0,66.0L1086.9,55.5L1084.6,55.3L1082.7,57.3L1083.2,86.1L1084.1,90.9L1087.4,96.9" stroke="#868E96" stroke-width="1.5" fill="none" opacity="0.9"/>
    <path d="M1101.0,369.0L1091.7,362.1L1086.6,360.1L1076.3,358.7" stroke="#868E96" stroke-width="1.5" fill="none" opacity="0.9"/>
    <path d="M1330.2,197.1L1334.7,178.0" stroke="#868E96" stroke-width="1.5" fill="none" opacity="0.9"/>
    <path d="M1080.2,228.7L1066.8,232.9L1060.8,233.0L1058.5,230.2" stroke="#868E96" stroke-width="1.5" fill="none" opacity="0.9"/>
    <path d="M1418.9,118.8L1303.2,57.2L1285.6,46.3L1269.4,38.6L1262.5,34.1L1195.7,-1.1L992.7,-111.0" stroke="#868E96" stroke-width="1.5" fill="none" opacity="0.9"/>
    <path d="M1068.6,213.8L1058.5,230.2L1047.5,208.0L1046.9,201.3L1052.1,196.9L1057.1,196.7L1061.6,198.4L1065.7,202.2L1068.8,207.5L1069.5,210.5L1068.6,213.8" stroke="#868E96" stroke-width="1.5" fill="none" opacity="0.9"/>
    <path d="M1132.2,124.5L1110.1,112.8L1107.7,112.3L1103.8,114.9L1097.5,126.0" stroke="#868E96" stroke-width="1.5" fill="none" opacity="0.9"/>
    <path d="M1149.8,101.5L1159.1,85.4L1155.1,81.3" stroke="#868E96" stroke-width="1.5" fill="none" opacity="0.9"/>
    <path d="M1145.6,99.6L1149.8,101.5L1150.7,103.7L1181.8,121.0L1186.9,125.2L1190.5,126.8" stroke="#868E96" stroke-width="1.5" fill="none" opacity="0.9"/>
    <path d="M1144.3,49.0L1137.7,63.7" stroke="#868E96" stroke-width="1.5" fill="none" opacity="0.9"/>
    <path d="M1139.0,481.0L1137.7,461.6L1135.4,455.1L1134.6,447.2L1130.9,433.5L1125.1,415.6L1124.1,393.9L1124.6,359.5L1123.7,341.6L1122.1,331.8L1114.4,314.0L1109.1,306.0L1103.1,299.9L1077.6,285.2" stroke="#868E96" stroke-width="1.5" fill="none" opacity="0.9"/>
    <path d="M1165.9,134.4L1160.3,133.0L1144.8,123.3L1137.3,124.1L1133.0,122.9" stroke="#868E96" stroke-width="1.5" fill="none" opacity="0.9"/>
    <path d="M934.7,719.9L936.2,723.8L941.6,725.7L975.0,725.0L1070.0,725.4L1129.1,727.4L1134.1,726.1L1135.2,724.0L1135.6,712.3L1139.0,481.0" stroke="#868E96" stroke-width="1.5" fill="none" opacity="0.9"/>
    <path d="M917.8,887.3L924.3,887.4L926.4,884.6L925.6,802.0L932.0,788.5L933.5,721.9" stroke="#868E96" stroke-width="1.5" fill="none" opacity="0.9"/>
    <path d="M1145.2,232.1L1209.6,233.2" stroke="#868E96" stroke-width="1.5" fill="none" opacity="0.9"/>
    <path d="M823.4,199.1L840.3,202.6" stroke="#868E96" stroke-width="1.5" fill="none" opacity="0.9"/>
    <path d="M824.6,189.6L828.0,192.4" stroke="#868E96" stroke-width="1.5" fill="none" opacity="0.9"/>
    <path d="M736.9,138.0L743.1,132.4L750.2,127.9L755.3,128.8L759.5,131.4L763.4,136.2L770.8,141.8L774.0,152.4L777.2,157.1L781.8,161.6L794.0,167.0L813.8,190.9L814.7,194.7L816.7,197.1" stroke="#868E96" stroke-width="1.5" fill="none" opacity="0.9"/>
    <path d="M749.3,140.7L748.3,139.5L691.7,131.4L684.1,128.5L676.0,127.9L665.6,129.1L652.6,132.2L639.1,130.2L628.2,123.6L620.2,115.5" stroke="#868E96" stroke-width="1.5" fill="none" opacity="0.9"/>
    <path d="M1276.4,462.2L1276.2,418.4L1274.6,406.2L1275.8,351.6" stroke="#868E96" stroke-width="1.5" fill="none" opacity="0.9"/>
    <path d="M1109.5,165.5L1119.0,176.4" stroke="#868E96" stroke-width="1.5" fill="none" opacity="0.9"/>
    <path d="M1216.7,106.7L1219.3,101.7L1210.6,97.1L1207.9,101.8" stroke="#868E96" stroke-width="1.5" fill="none" opacity="0.9"/>
    <path d="M1125.6,112.7L1112.0,105.5L1115.0,100.1L1128.4,107.2L1122.2,119.2" stroke="#868E96" stroke-width="1.5" fill="none" opacity="0.9"/>
    <path d="M1079.5,231.7L1090.7,234.0L1092.7,233.5L1095.8,230.3" stroke="#868E96" stroke-width="1.5" fill="none" opacity="0.9"/>
    <path d="M1114.0,156.9L1119.1,158.2L1130.9,155.8" stroke="#868E96" stroke-width="1.5" fill="none" opacity="0.9"/>
    <path d="M1139.4,59.9L1154.1,67.6L1152.6,71.9" stroke="#868E96" stroke-width="1.5" fill="none" opacity="0.9"/>
    <path d="M1183.8,81.2L1196.6,57.2" stroke="#868E96" stroke-width="1.5" fill="none" opacity="0.9"/>
    <path d="M1181.3,48.6L1179.2,52.0L1210.5,69.1L1212.5,65.9" stroke="#868E96" stroke-width="1.5" fill="none" opacity="0.9"/>
    <path d="M1218.1,88.3L1220.5,83.5L1213.4,79.7" stroke="#868E96" stroke-width="1.5" fill="none" opacity="0.9"/>
    <path d="M1208.3,54.4L1204.3,61.6" stroke="#868E96" stroke-width="1.5" fill="none" opacity="0.9"/>
    <path d="M1220.9,50.5L1212.5,65.9" stroke="#868E96" stroke-width="1.5" fill="none" opacity="0.9"/>
    <path d="M828.0,192.4L819.4,204.9L838.3,209.0L842.0,197.4L828.0,192.4" stroke="#868E96" stroke-width="1.5" fill="none" opacity="0.9"/>
    <path d="M887.7,-13.0L872.3,15.4L883.3,38.6L891.0,50.9L902.2,64.6L908.0,68.9L920.3,70.9" stroke="#868E96" stroke-width="1.5" fill="none" opacity="0.9"/>
    <path d="M874.8,11.8L912.4,42.3L918.6,45.8L925.0,47.4L920.3,70.9" stroke="#868E96" stroke-width="1.5" fill="none" opacity="0.9"/>
    <path d="M909.0,39.6L894.1,54.7" stroke="#868E96" stroke-width="1.5" fill="none" opacity="0.9"/>
    <path d="M914.4,43.4L898.4,59.9" stroke="#868E96" stroke-width="1.5" fill="none" opacity="0.9"/>
    <path d="M902.2,64.6L912.8,53.7L912.9,50.9L910.2,47.7" stroke="#868E96" stroke-width="1.5" fill="none" opacity="0.9"/>
    <path d="M920.1,46.3L915.9,70.4" stroke="#868E96" stroke-width="1.5" fill="none" opacity="0.9"/>
    <path d="M945.3,21.9L938.2,37.6L935.5,46.5L935.2,52.1L936.6,59.0L941.0,69.5" stroke="#868E96" stroke-width="1.5" fill="none" opacity="0.9"/>
    <path d="M1325.0,66.5L1332.0,70.0" stroke="#868E96" stroke-width="1.5" fill="none" opacity="0.9"/>
    <path d="M1273.1,50.0L1269.3,57.5" stroke="#868E96" stroke-width="1.5" fill="none" opacity="0.9"/>
    <path d="M1030.2,106.2L1032.3,109.6L1049.5,102.4" stroke="#868E96" stroke-width="1.5" fill="none" opacity="0.9"/>
    <path d="M1184.7,123.4L1176.0,138.2L1182.6,141.3" stroke="#868E96" stroke-width="1.5" fill="none" opacity="0.9"/>
    <path d="M941.0,69.5L939.6,72.1L937.0,72.9L932.9,73.0L932.0,70.9" stroke="#868E96" stroke-width="1.5" fill="none" opacity="0.9"/>
    <path d="M968.1,53.7L960.8,53.0" stroke="#868E96" stroke-width="1.5" fill="none" opacity="0.9"/>
    <path d="M967.7,29.4L962.9,40.7L961.2,48.0L960.3,60.3L961.5,73.6" stroke="#868E96" stroke-width="1.5" fill="none" opacity="0.9"/>
    <path d="M957.0,80.2L965.8,87.1L969.5,91.4" stroke="#868E96" stroke-width="1.5" fill="none" opacity="0.9"/>
    <path d="M969.5,76.3L964.0,85.7" stroke="#868E96" stroke-width="1.5" fill="none" opacity="0.9"/>
    <path d="M970.8,82.2L968.0,89.7" stroke="#868E96" stroke-width="1.5" fill="none" opacity="0.9"/>
    <path d="M970.1,79.2L985.6,75.0L992.4,67.7L998.7,67.2L1006.5,69.9L1018.3,77.4L1023.8,63.6L1019.7,53.8L1026.7,50.8" stroke="#868E96" stroke-width="1.5" fill="none" opacity="0.9"/>
    <path d="M1013.2,73.6L1020.6,56.0" stroke="#868E96" stroke-width="1.5" fill="none" opacity="0.9"/>
    <path d="M969.9,44.1L1004.4,55.1L1004.7,69.3" stroke="#868E96" stroke-width="1.5" fill="none" opacity="0.9"/>
    <path d="M979.3,24.7L996.7,37.8L1003.4,28.3L1006.1,27.7L1008.6,29.9L1019.7,53.8" stroke="#868E96" stroke-width="1.5" fill="none" opacity="0.9"/>
    <path d="M1009.0,71.2L1010.6,66.7L1010.6,55.6L1012.6,51.3L1016.5,46.9" stroke="#868E96" stroke-width="1.5" fill="none" opacity="0.9"/>
    <path d="M1004.4,55.1L1008.0,47.1L1013.7,40.9" stroke="#868E96" stroke-width="1.5" fill="none" opacity="0.9"/>
    <path d="M995.4,67.6L995.6,55.8L997.2,50.3L999.7,44.1L1009.4,31.6" stroke="#868E96" stroke-width="1.5" fill="none" opacity="0.9"/>
    <path d="M996.7,37.8L990.7,48.7L989.3,55.8L989.3,65.6L991.3,68.6" stroke="#868E96" stroke-width="1.5" fill="none" opacity="0.9"/>
    <path d="M982.8,76.0L981.5,62.0L983.4,45.2L989.8,32.6" stroke="#868E96" stroke-width="1.5" fill="none" opacity="0.9"/>
    <path d="M977.0,77.7L974.8,66.1L975.7,47.7L979.6,35.7L984.4,28.5" stroke="#868E96" stroke-width="1.5" fill="none" opacity="0.9"/>
    <path d="M980.5,76.9L984.9,85.5" stroke="#868E96" stroke-width="1.5" fill="none" opacity="0.9"/>
    <path d="M1134.9,62.2L1126.8,77.8" stroke="#868E96" stroke-width="1.5" fill="none" opacity="0.9"/>
    <path d="M973.1,184.4L966.6,181.4" stroke="#868E96" stroke-width="1.5" fill="none" opacity="0.9"/>
    <path d="M964.7,194.4L968.8,166.6L975.1,171.0L975.0,172.4L972.2,173.4L967.5,172.6" stroke="#868E96" stroke-width="1.5" fill="none" opacity="0.9"/>
    <path d="M1084.9,147.4L1079.9,146.5L1078.6,143.2" stroke="#868E96" stroke-width="1.5" fill="none" opacity="0.9"/>
    <path d="M1069.4,145.1L1074.6,142.7" stroke="#868E96" stroke-width="1.5" fill="none" opacity="0.9"/>
    <path d="M1064.6,133.4L1072.8,133.8" stroke="#868E96" stroke-width="1.5" fill="none" opacity="0.9"/>
    <path d="M1066.5,125.4L1073.5,125.4" stroke="#868E96" stroke-width="1.5" fill="none" opacity="0.9"/>
    <path d="M1067.6,120.6L1072.3,120.5" stroke="#868E96" stroke-width="1.5" fill="none" opacity="0.9"/>
    <path d="M1260.4,52.7L1262.8,48.1" stroke="#868E96" stroke-width="1.5" fill="none" opacity="0.9"/>
    <path d="M1033.1,64.8L1067.6,64.5" stroke="#868E96" stroke-width="1.5" fill="none" opacity="0.9"/>
    <path d="M1022.0,202.3L1016.3,202.1" stroke="#868E96" stroke-width="1.5" fill="none" opacity="0.9"/>
    <path d="M1014.4,194.3L1013.9,198.4" stroke="#868E96" stroke-width="1.5" fill="none" opacity="0.9"/>
  </g>
  <g id="residential" stroke-linecap="round" stroke-linejoin="round">
    <path d="M526.7,3612.7L533.5,3088.8L532.8,2655.9L542.3,1575.5L543.8,986.5L546.6,461.4L554.6,82.9L559.1,-317.9L560.5,-326.3L565.2,-331.6L588.8,-343.6" stroke="#51CF66" stroke-width="2" fill="none" opacity="0.9"/>
    <path d="M-485.8,993.0L35.7,993.3L595.9,985.7L1066.7,988.3L1586.0,989.4" stroke="#51CF66" stroke-width="2" fill="none" opacity="0.9"/>
    <path d="M1235.2,1265.7L1208.9,1248.5L1064.0,1247.2L1057.0,1249.1L1055.0,1251.7L1054.0,1257.9L1054.4,1259.5L1056.3,1260.4L1077.8,1263.4L1083.5,1270.0L1089.3,1284.1L1098.3,1291.5L1124.6,1299.9L1140.2,1299.0L1189.2,1279.8L1235.2,1265.7L1242.4,1273.0L1246.0,1274.3L1250.3,1272.7L1258.7,1262.3L1267.4,1259.4L1270.9,1255.7L1270.5,1251.6L1267.0,1248.5L1251.9,1248.2" stroke="#51CF66" stroke-width="2" fill="none" opacity="0.9"/>
    <path d="M435.3,462.4L435.3,504.1L426.1,515.8" stroke="#51CF66" stroke-width="2" fill="none" opacity="0.9"/>
    <path d="M62.4,556.8L75.5,555.8L76.5,552.3L76.5,536.4" stroke="#51CF66" stroke-width="2" fill="none" opacity="0.9"/>
    <path d="M83.8,466.1L83.9,527.2L83.1,532.9L78.8,536.3L68.5,536.6L63.4,538.8L62.4,545.7L62.6,567.0" stroke="#51CF66" stroke-width="2" fill="none" opacity="0.9"/>
    <path d="M1074.8,461.9L980.3,461.7L974.7,463.5L966.7,463.9L960.1,465.5L953.3,469.8L947.0,475.6L943.4,481.3L933.4,490.9L932.5,493.4L933.5,495.2L936.2,494.3L941.8,487.6L943.4,481.3" stroke="#51CF66" stroke-width="2" fill="none" opacity="0.9"/>
    <path d="M1589.1,763.4L1571.8,760.2L1563.1,756.0L1557.0,751.1L1552.3,742.9L1547.0,710.7L1544.0,703.9L1356.2,485.0L1341.9,468.9L1337.8,465.6L1331.2,462.5" stroke="#51CF66" stroke-width="2" fill="none" opacity="0.9"/>
    <path d="M1123.8,344.7L1128.3,340.0L1131.2,338.5L1152.1,332.8L1161.2,333.5L1162.8,338.0L1162.9,343.3" stroke="#51CF66" stroke-width="2" fill="none" opacity="0.9"/>
    <path d="M1124.6,359.5L1117.2,356.8L1111.0,357.6L1106.5,360.6L1101.0,369.0L1097.0,391.4L1096.1,407.0L1099.2,419.9L1105.1,431.6L1113.7,441.5L1120.7,446.2L1134.6,447.2L1137.7,442.7L1156.0,445.2L1169.2,444.1" stroke="#51CF66" stroke-width="2" fill="none" opacity="0.9"/>
    <path d="M1153.7,426.7L1155.1,418.0L1154.8,404.9" stroke="#51CF66" stroke-width="2" fill="none" opacity="0.9"/>
    <path d="M1138.9,476.7L1170.7,476.7L1169.5,445.3L1167.4,437.9L1164.1,431.2L1158.0,427.4L1150.7,426.8L1147.2,429.4L1137.7,442.7" stroke="#51CF66" stroke-width="2" fill="none" opacity="0.9"/>
    <path d="M1124.3,404.9L1243.1,405.5L1244.5,407.4L1252.2,412.2L1254.4,416.0L1255.3,419.7L1252.9,426.7L1253.6,441.1L1255.3,449.7L1256.1,451.3L1258.2,452.0L1260.3,451.3L1260.7,449.3L1260.2,419.4" stroke="#51CF66" stroke-width="2" fill="none" opacity="0.9"/>
    <path d="M283.7,463.4L129.5,465.2L38.0,467.4L33.3,472.7L1.0,523.4L-0.0,527.5L0.3,532.4L5.9,556.7" stroke="#51CF66" stroke-width="2" fill="none" opacity="0.9"/>
    <path d="M1064.9,1134.6L1048.9,1134.3L1044.9,1135.3L1043.1,1136.7L1042.5,1145.2L1042.9,1147.9L1044.7,1150.3L1064.8,1150.0" stroke="#51CF66" stroke-width="2" fill="none" opacity="0.9"/>
    <path d="M1276.3,435.0L1286.9,434.7L1288.1,433.7L1287.9,411.5L1286.2,410.5L1275.2,410.4" stroke="#51CF66" stroke-width="2" fill="none" opacity="0.9"/>
    <path d="M1276.2,418.4L1255.3,419.7" stroke="#51CF66" stroke-width="2" fill="none" opacity="0.9"/>
    <path d="M1194.3,405.4L1192.6,414.3L1190.3,418.7L1188.2,420.3L1173.9,421.2L1172.4,419.5L1172.6,405.4" stroke="#51CF66" stroke-width="2" fill="none" opacity="0.9"/>
    <path d="M1230.2,461.9L1228.0,472.1L1215.7,497.7L1215.0,503.8L1218.2,510.7L1223.0,513.8L1229.2,515.3L1253.0,516.1L1272.9,525.2L1278.9,522.3L1293.0,509.2L1299.6,501.7L1302.2,497.1L1312.5,467.4L1312.3,464.4L1310.6,462.3" stroke="#51CF66" stroke-width="2" fill="none" opacity="0.9"/>
    <path d="M1243.1,405.5L1274.6,406.2" stroke="#51CF66" stroke-width="2" fill="none" opacity="0.9"/>
    <path d="M1116.9,319.0L1131.3,321.0L1142.8,321.3L1143.7,322.4L1144.0,334.8" stroke="#51CF66" stroke-width="2" fill="none" opacity="0.9"/>
    <path d="M1096.9,392.5L1075.7,389.8" stroke="#51CF66" stroke-width="2" fill="none" opacity="0.9"/>
    <path d="M1194.5,461.8L1197.7,448.4L1199.6,447.3L1210.3,446.7L1213.4,447.3L1218.9,451.4L1221.0,456.0L1221.4,461.8" stroke="#51CF66" stroke-width="2" fill="none" opacity="0.9"/>
    <path d="M543.5,1242.5L525.4,1240.3L513.7,1244.3L502.6,1244.7L345.9,1240.2L337.9,1238.2L327.3,1232.3L321.0,1226.1L318.5,1220.7L318.3,1217.3" stroke="#51CF66" stroke-width="2" fill="none" opacity="0.9"/>
    <path d="M280.7,990.4L286.9,1094.4" stroke="#51CF66" stroke-width="2" fill="none" opacity="0.9"/>
    <path d="M280.1,545.3L282.3,541.7L284.5,531.4L283.7,463.4" stroke="#51CF66" stroke-width="2" fill="none" opacity="0.9"/>
    <path d="M283.7,463.4L546.6,461.4" stroke="#51CF66" stroke-width="2" fill="none" opacity="0.9"/>
    <path d="M1331.2,462.5L1074.8,461.9" stroke="#51CF66" stroke-width="2" fill="none" opacity="0.9"/>
    <path d="M1245.5,123.0L1202.6,98.6L1158.2,74.9" stroke="#51CF66" stroke-width="2" fill="none" opacity="0.9"/>
    <path d="M1280.4,173.0L1308.8,114.8L1379.5,-20.4L1568.8,-374.6" stroke="#51CF66" stroke-width="2" fill="none" opacity="0.9"/>
    <path d="M1182.6,141.3L1191.3,125.4L1196.3,111.0L1211.1,84.6L1232.8,41.3L1287.1,-59.0L1418.8,-308.7L1518.3,-493.5" stroke="#51CF66" stroke-width="2" fill="none" opacity="0.9"/>
    <path d="M1040.7,81.1L1067.7,80.6" stroke="#51CF66" stroke-width="2" fill="none" opacity="0.9"/>
    <path d="M1390.2,160.1L1365.2,148.3L1174.1,44.8" stroke="#51CF66" stroke-width="2" fill="none" opacity="0.9"/>
    <path d="M1070.0,146.4L1026.7,50.8L1003.2,-6.0L997.3,-49.7L998.7,-57.7L1003.1,-66.5L1043.9,-143.7" stroke="#51CF66" stroke-width="2" fill="none" opacity="0.9"/>
    <path d="M1190.3,14.9L1417.1,137.0" stroke="#51CF66" stroke-width="2" fill="none" opacity="0.9"/>
    <path d="M1142.7,105.0L1096.8,79.7" stroke="#51CF66" stroke-width="2" fill="none" opacity="0.9"/>
    <path d="M1043.5,4129.3L1050.5,3606.0L1055.5,3085.2L1055.8,2559.1L1060.9,1544.1L1070.0,725.4L1074.8,461.9" stroke="#51CF66" stroke-width="2" fill="none" opacity="0.9"/>
    <path d="M1251.9,1248.2L1208.9,1248.5" stroke="#51CF66" stroke-width="2" fill="none" opacity="0.9"/>
    <path d="M1084.8,158.3L1083.9,133.6L1085.7,103.5L1087.4,96.9L1113.2,51.1" stroke="#51CF66" stroke-width="2" fill="none" opacity="0.9"/>
    <path d="M1064.2,134.9L1068.3,117.9L1067.3,15.5" stroke="#51CF66" stroke-width="2" fill="none" opacity="0.9"/>
    <path d="M1334.7,178.0L1338.5,163.6L1409.6,32.1" stroke="#51CF66" stroke-width="2" fill="none" opacity="0.9"/>
    <path d="M993.9,124.5L989.0,119.3L981.3,106.4L972.0,87.2L969.6,77.5L967.9,62.8L968.2,51.1L972.5,36.4L976.3,29.2L987.9,12.8L1003.2,-6.0" stroke="#51CF66" stroke-width="2" fill="none" opacity="0.9"/>
    <path d="M1245.5,123.0L1249.2,120.2L1294.9,33.0" stroke="#51CF66" stroke-width="2" fill="none" opacity="0.9"/>
    <path d="M846.7,160.7L824.6,189.6L810.7,202.3L803.1,205.3L793.8,206.1L65.3,208.4L42.9,209.0L-3.9,217.8L-14.8,222.1L-29.4,231.0L-55.3,251.7L-62.8,258.8L-97.7,297.6L-120.4,324.9L-150.1,365.2L-179.8,409.4L-191.7,425.2L-204.8,439.6L-215.0,447.9L-230.7,456.8L-243.2,461.5L-254.7,464.8L-274.9,465.9L-810.8,471.9L-1125.6,473.9L-1227.5,473.2L-1762.6,474.5L-1840.3,473.4L-2539.5,475.2L-2616.0,476.4L-2786.8,475.3L-3114.4,475.7L-3368.0,480.4L-3649.0,484.0L-4004.6,483.4L-4656.2,485.6L-5178.1,481.2L-5700.7,479.3" stroke="#51CF66" stroke-width="2" fill="none" opacity="0.9"/>
    <path d="M1158.2,74.9L1079.8,32.3L1067.4,32.0" stroke="#51CF66" stroke-width="2" fill="none" opacity="0.9"/>
    <path d="M1334.7,178.0L1283.1,177.2" stroke="#51CF66" stroke-width="2" fill="none" opacity="0.9"/>
    <path d="M1322.3,125.0L1305.1,155.7" stroke="#51CF66" stroke-width="2" fill="none" opacity="0.9"/>
    <path d="M1108.2,167.6L1080.7,156.8L1072.9,150.8L1070.0,146.4" stroke="#51CF66" stroke-width="2" fill="none" opacity="0.9"/>
    <path d="M1160.6,-39.2L1113.2,51.1" stroke="#51CF66" stroke-width="2" fill="none" opacity="0.9"/>
    <path d="M1472.2,128.5L1206.0,-14.9" stroke="#51CF66" stroke-width="2" fill="none" opacity="0.9"/>
  </g>
  <g id="collector" stroke-linecap="round" stroke-linejoin="round">
    <path d="M1089.0,203.8L1080.2,228.7L1078.0,242.9" stroke="#74C0FC" stroke-width="2.5" fill="none" opacity="0.9"/>
    <path d="M1100.3,182.9L1108.2,167.6" stroke="#74C0FC" stroke-width="2.5" fill="none" opacity="0.9"/>
    <path d="M1108.2,167.6L1142.7,105.0L1278.4,-151.7" stroke="#74C0FC" stroke-width="2.5" fill="none" opacity="0.9"/>
    <path d="M1074.8,461.9L1078.0,242.9" stroke="#74C0FC" stroke-width="2.5" fill="none" opacity="0.9"/>
    <path d="M1100.3,182.9L1089.0,203.8" stroke="#74C0FC" stroke-width="2.5" fill="none" opacity="0.9"/>
  </g>
  <g id="highway" stroke-linecap="round" stroke-linejoin="round">
    <path d="M1258.7,241.9L1065.7,243.3L1022.5,241.9L985.2,237.0L954.8,228.1L941.4,223.0L908.0,207.9L893.9,199.3L870.2,182.0L836.6,151.6L820.8,133.1L803.0,105.7L775.2,50.2L689.2,-130.1" stroke="#F48C06" stroke-width="4" fill="none" opacity="0.9"/>
    <path d="M1282.5,242.0L1258.7,241.9" stroke="#F48C06" stroke-width="4" fill="none" opacity="0.9"/>
    <path d="M1600.7,283.4L1373.3,245.5L1316.1,241.7L1282.5,242.0" stroke="#F48C06" stroke-width="4" fill="none" opacity="0.9"/>
  </g>
  <g id="legend" transform="translate(20, 20)">
    <rect x="0" y="0" width="160" height="230" fill="#16213e" rx="6" opacity="0.95"/>
    <text x="12" y="24" fill="#60a5fa" font-family="Arial" font-size="14" font-weight="bold">Kansas_Farmland</text>
    <text x="12" y="42" fill="#9ca3af" font-family="Arial" font-size="11">147 roads | residential</text>
    <rect x="12" y="65" width="20" height="8" fill="#E31C1C" rx="2"/>
    <text x="40" y="73" fill="#9ca3af" font-family="Arial" font-size="11">Interstate</text>
    <rect x="12" y="87" width="20" height="8" fill="#F48C06" rx="2"/>
    <text x="40" y="95" fill="#9ca3af" font-family="Arial" font-size="11">Highway</text>
    <rect x="12" y="109" width="20" height="8" fill="#FFC300" rx="2"/>
    <text x="40" y="117" fill="#9ca3af" font-family="Arial" font-size="11">Arterial</text>
    <rect x="12" y="131" width="20" height="8" fill="#FFE066" rx="2"/>
    <text x="40" y="139" fill="#9ca3af" font-family="Arial" font-size="11">Minor Arterial</text>
    <rect x="12" y="153" width="20" height="8" fill="#74C0FC" rx="2"/>
    <text x="40" y="161" fill="#9ca3af" font-family="Arial" font-size="11">Collector</text>
    <rect x="12" y="175" width="20" height="8" fill="#51CF66" rx="2"/>
    <text x="40" y="183" fill="#9ca3af" font-family="Arial" font-size="11">Residential</text>
    <rect x="12" y="197" width="20" height="8" fill="#868E96" rx="2"/>
    <text x="40" y="205" fill="#9ca3af" font-family="Arial" font-size="11">Service</text>
  </g>
  <g id="scale" transform="translate(20, 1360)">
    <rect x="0" y="0" width="162" height="4" fill="#374151"/>
    <text x="0" y="-8" fill="#9ca3af" font-family="Arial" font-size="11">500m</text>
  </g>
</svg>